<?xml version="1.0" standalone="no"?>
<!DOCTYPE svg PUBLIC "-//W3C//DTD SVG 20010904//EN"
 "http://www.w3.org/TR/2001/REC-SVG-20010904/DTD/svg10.dtd">
<svg version="1.0" xmlns="http://www.w3.org/2000/svg"
 width="842.000000pt" height="842.000000pt" viewBox="0 0 842.000000 842.000000"
 preserveAspectRatio="xMidYMid meet">
<metadata>
Created by potrace 1.11, written by Peter Selinger 2001-2013
</metadata>
<g transform="translate(0.000000,842.000000) scale(0.100000,-0.100000)"
fill="#000000" stroke="none">
<path d="M1948 4988 c-17 -17 -18 -61 -18 -723 0 -662 1 -706 18 -723 16 -16
50 -18 477 -17 253 0 466 4 473 8 18 12 15 65 -5 76 -11 5 -195 9 -436 9 -230
0 -421 3 -425 7 -4 3 -7 134 -7 291 l0 284 385 0 c287 0 389 3 398 12 16 16
15 65 0 75 -7 4 -182 8 -388 8 -206 0 -379 3 -385 7 -8 5 -13 536 -6 603 1 7
147 10 418 9 230 0 428 3 441 8 16 5 22 15 22 37 0 16 -6 33 -12 38 -7 4 -220
8 -473 8 -427 0 -461 -1 -477 -17z"/>
<path d="M4024 5002 c-6 -4 -30 -34 -54 -67 -24 -33 -60 -82 -81 -110 -20 -27
-197 -273 -394 -545 -197 -272 -386 -533 -420 -580 -99 -136 -99 -134 -83
-167 9 -20 21 -29 43 -30 28 -3 39 10 215 254 102 141 282 389 400 552 119
163 240 330 270 371 30 41 60 81 67 88 7 7 13 19 14 25 0 7 4 3 8 -8 4 -11 7
-299 6 -640 -1 -581 1 -621 17 -637 22 -22 57 -23 64 -3 4 9 7 344 8 746 1
545 -2 733 -11 740 -16 14 -56 20 -69 11z"/>
<path d="M4268 4999 c-19 -11 -23 -45 -8 -69 7 -12 49 -15 247 -16 131 -1 241
-2 246 -3 4 -1 7 -306 7 -678 0 -373 4 -684 9 -692 10 -16 58 -18 73 -3 8 8
11 219 11 691 0 375 2 682 6 682 3 1 111 2 239 3 194 1 235 4 242 16 16 25 11
59 -9 70 -27 14 -1039 13 -1063 -1z"/>
<path d="M5949 5006 c-2 -2 -20 -6 -39 -9 -172 -25 -335 -174 -375 -342 -16
-68 -9 -173 16 -240 44 -117 127 -188 264 -225 63 -17 102 -23 280 -45 91 -11
177 -38 223 -69 143 -97 118 -333 -44 -416 -78 -39 -238 -56 -357 -36 -151 25
-296 172 -313 319 -8 64 -12 72 -40 81 -107 33 -49 -239 75 -352 54 -50 148
-104 216 -124 54 -17 94 -22 180 -22 301 2 466 135 467 378 2 208 -135 306
-477 341 -204 21 -299 59 -354 142 -116 175 -30 415 179 498 101 40 293 21
387 -38 93 -59 160 -162 170 -262 4 -40 12 -60 26 -70 28 -20 60 -4 68 32 8
40 -23 161 -56 216 -54 94 -165 181 -275 217 -56 19 -210 37 -221 26z"/>
</g>
</svg>
